<svg width="54" height="54" viewBox="0 0 54 54" fill="none" xmlns="http://www.w3.org/2000/svg">
<g id="Image">
<path id="Vector" d="M5.0625 35.4375L16.6702 23.8297C17.1403 23.3596 17.6984 22.9867 18.3127 22.7323C18.9269 22.4779 19.5852 22.347 20.25 22.347C20.9148 22.347 21.5731 22.4779 22.1873 22.7323C22.8016 22.9867 23.3597 23.3596 23.8297 23.8297L35.4375 35.4375M32.0625 32.0625L35.2328 28.8922C35.7028 28.4221 36.2609 28.0492 36.8752 27.7948C37.4894 27.5404 38.1477 27.4095 38.8125 27.4095C39.4773 27.4095 40.1356 27.5404 40.7498 27.7948C41.3641 28.0492 41.9222 28.4221 42.3922 28.8922L48.9375 35.4375M8.4375 43.875H45.5625C46.4576 43.875 47.316 43.5194 47.949 42.8865C48.5819 42.2535 48.9375 41.3951 48.9375 40.5V13.5C48.9375 12.6049 48.5819 11.7464 47.949 11.1135C47.316 10.4806 46.4576 10.125 45.5625 10.125H8.4375C7.54239 10.125 6.68395 10.4806 6.05101 11.1135C5.41808 11.7464 5.0625 12.6049 5.0625 13.5V40.5C5.0625 41.3951 5.41808 42.2535 6.05101 42.8865C6.68395 43.5194 7.54239 43.875 8.4375 43.875ZM32.0625 18.5625H32.0805V18.5805H32.0625V18.5625ZM32.9062 18.5625C32.9062 18.7863 32.8174 19.0009 32.6591 19.1591C32.5009 19.3174 32.2863 19.4062 32.0625 19.4062C31.8387 19.4062 31.6241 19.3174 31.4659 19.1591C31.3076 19.0009 31.2188 18.7863 31.2188 18.5625C31.2188 18.3387 31.3076 18.1241 31.4659 17.9659C31.6241 17.8076 31.8387 17.7188 32.0625 17.7188C32.2863 17.7188 32.5009 17.8076 32.6591 17.9659C32.8174 18.1241 32.9062 18.3387 32.9062 18.5625Z" stroke="black" stroke-width="3.5" stroke-linecap="round" stroke-linejoin="round"/>
</g>
</svg>
