<svg width="33" height="41" viewBox="0 0 33 41" fill="none" xmlns="http://www.w3.org/2000/svg">
<path fill-rule="evenodd" clip-rule="evenodd" d="M16.9596 40.3011C13.6049 40.3409 10.2603 39.9272 7.01656 39.0711C5.55636 38.7176 4.16488 38.1245 2.89858 37.3161C2.3959 36.9566 1.93563 36.5413 1.52657 36.0781C1.14236 35.6302 0.95327 35.0472 1.00155 34.4591C1.09994 29.2213 4.75527 24.7249 9.86257 23.5591C10.2714 23.429 10.7179 23.5035 11.0625 23.7591C12.6718 24.8603 14.5758 25.4503 16.5257 25.4521C18.1654 25.5553 19.8066 25.2756 21.3196 24.6351C21.9826 24.3261 22.5976 23.9141 23.2396 23.5591C23.3484 23.4924 23.4752 23.461 23.6026 23.4692C28.1146 24.2728 31.7007 27.7109 32.6936 32.1851C32.8255 32.9083 32.9183 33.638 32.9716 34.3712C33.0326 35.1483 32.7349 35.9108 32.1636 36.4412C31.3105 37.2643 30.2952 37.9008 29.1826 38.3101C27.357 39.0377 25.4507 39.5436 23.5046 39.8171C21.3399 40.157 19.1508 40.3189 16.9596 40.3011L16.9596 40.3011Z" fill="#E9AE24"/>
<path fill-rule="evenodd" clip-rule="evenodd" d="M6.28176 6.21107C6.26778 6.47107 6.25674 6.64307 6.51473 6.77107C6.70449 6.86935 6.82851 7.06036 6.84103 7.27374C6.85354 7.48711 6.75271 7.69128 6.57571 7.81108C6.45016 7.88055 6.38174 8.02141 6.40469 8.16307C6.55666 10.1821 6.68472 12.2041 6.86068 14.2211C6.87289 15.0935 6.69509 15.9582 6.33968 16.755C6.31869 16.8161 6.23971 16.8551 6.18771 16.9071C6.1437 16.8601 6.07668 16.8211 6.0577 16.7661C5.69051 15.9226 5.51723 15.0074 5.55074 14.088C5.73171 12.3251 5.81271 10.5511 5.93569 8.78207C5.9457 8.63707 5.96572 8.49307 5.97768 8.34807C6.03872 8.12491 5.95412 7.88739 5.76577 7.75307C5.60928 7.62285 5.53091 7.42111 5.55856 7.21936C5.5862 7.01761 5.7159 6.84436 5.90176 6.76106C6.16268 6.64508 6.11971 6.43607 6.13168 6.26108C6.13168 6.18907 5.96566 6.08807 5.85867 6.03207C5.61965 5.90607 5.35867 5.82208 5.12868 5.68008C4.74667 5.44008 4.74368 5.08008 5.13467 4.85507C5.49136 4.66281 5.8586 4.49086 6.23464 4.34007C9.33065 2.99741 12.4276 1.65674 15.5257 0.318085C16.4466 -0.100662 17.5031 -0.102844 18.4257 0.312073C21.7984 1.77008 25.1703 3.22874 28.5416 4.68808C28.8096 4.80408 29.1216 4.92609 29.1177 5.27008C29.1138 5.61408 28.8037 5.72908 28.5347 5.84607C27.4527 6.31607 26.3717 6.78708 25.2857 7.24608C25.1167 7.29283 25.0075 7.45612 25.0286 7.63008C25.0416 8.58008 25.0097 9.53009 25.0467 10.4801C25.0983 10.8617 25.1842 11.2379 25.3036 11.6041C25.8667 14.1436 25.3767 16.8029 23.9456 18.9751C22.9332 20.7535 21.3407 22.1303 19.4346 22.8751C17.0449 23.8105 14.3333 23.3383 12.4006 21.6501C10.2439 19.9619 8.84206 17.4896 8.50057 14.7721C8.31673 13.4809 8.43697 12.1646 8.85159 10.9281C8.90487 10.7636 8.93319 10.592 8.93557 10.4191C8.94357 9.48808 8.93557 8.55708 8.94357 7.62608C8.96938 7.46231 8.86965 7.30481 8.71059 7.25809C7.91573 6.92609 7.12173 6.57307 6.28176 6.21107Z" fill="#E9AE24"/>
</svg>
