<svg width="32" height="32" viewBox="0 0 32 32" fill="none" xmlns="http://www.w3.org/2000/svg">
<g id="PlayOutline">
<path id="Vector" d="M19.669 14.8907L15.4063 12.048C15.2054 11.9139 14.9717 11.8369 14.7304 11.8253C14.489 11.8137 14.2491 11.8679 14.0361 11.9821C13.8232 12.0963 13.6453 12.2662 13.5215 12.4737C13.3976 12.6812 13.3325 12.9184 13.333 13.16V18.844C13.333 19.0854 13.3985 19.3223 13.5225 19.5293C13.6466 19.7364 13.8245 19.9059 14.0373 20.0198C14.2502 20.1337 14.4899 20.1877 14.731 20.176C14.9721 20.1642 15.2055 20.0873 15.4063 19.9533L19.669 17.1107C19.8516 16.9889 20.0013 16.8239 20.1049 16.6304C20.2085 16.4369 20.2626 16.2208 20.2626 16.0013C20.2626 15.7818 20.2085 15.5658 20.1049 15.3722C20.0013 15.1787 19.8516 15.0124 19.669 14.8907Z" stroke="black" stroke-width="2" stroke-linecap="round" stroke-linejoin="round"/>
<path id="Vector_2" d="M28 16C28 17.5759 27.6896 19.1363 27.0866 20.5922C26.4835 22.0481 25.5996 23.371 24.4853 24.4853C23.371 25.5996 22.0481 26.4835 20.5922 27.0866C19.1363 27.6896 17.5759 28 16 28C14.4241 28 12.8637 27.6896 11.4078 27.0866C9.95189 26.4835 8.62902 25.5996 7.51472 24.4853C6.40042 23.371 5.5165 22.0481 4.91345 20.5922C4.31039 19.1363 4 17.5759 4 16C4 12.8174 5.26428 9.76516 7.51472 7.51472C9.76516 5.26428 12.8174 4 16 4C19.1826 4 22.2348 5.26428 24.4853 7.51472C26.7357 9.76516 28 12.8174 28 16Z" stroke="black" stroke-width="2" stroke-linecap="round" stroke-linejoin="round"/>
</g>
</svg>
