<svg width="13" height="14" viewBox="0 0 13 14" fill="none" xmlns="http://www.w3.org/2000/svg">
<path fill-rule="evenodd" clip-rule="evenodd" d="M6.50018 0.828125C3.02078 0.828125 0.200195 3.64873 0.200195 7.12813C0.200195 10.6075 3.02078 13.4281 6.50018 13.4281C9.97958 13.4281 12.8002 10.6075 12.8002 7.12813C12.8002 3.64873 9.97958 0.828125 6.50018 0.828125ZM6.50018 12.2001C3.69662 12.2007 1.42328 9.92868 1.42218 7.12512C1.42154 5.77975 1.95605 4.48782 2.90814 3.53519C3.86026 2.58253 5.15186 2.04724 6.49872 2.04712C7.84583 2.04646 9.13797 2.58121 10.0906 3.53362C11.0433 4.48602 11.5785 5.77802 11.5782 7.12512C11.5768 9.92915 9.30325 12.2009 6.49969 12.2001H6.50018ZM8.06918 9.55212C8.13498 9.60088 8.2175 9.62132 8.29843 9.60893C8.37936 9.59653 8.452 9.55232 8.50018 9.48611L8.97717 8.82812C9.02646 8.76271 9.04688 8.67999 9.03366 8.59917C9.02045 8.51833 8.97473 8.44643 8.9072 8.40012L7.20718 7.16612V3.56612C7.20398 3.40178 7.07153 3.26932 6.9072 3.26613H6.09418C5.92984 3.26932 5.79736 3.40178 5.79419 3.56612V7.73512C5.79434 7.83209 5.8403 7.92331 5.91818 7.98111L8.06918 9.55212Z" fill="#A5A5A5"/>
</svg>
