<svg width="173" height="177" viewBox="0 0 173 177" fill="none" xmlns="http://www.w3.org/2000/svg">
<path fill-rule="evenodd" clip-rule="evenodd" d="M170.891 68.102C178.311 102.265 153.173 135.709 123.107 156.03C93.0408 176.351 58.1068 183.494 33.4068 167.658C8.70683 151.822 -5.85117 112.952 4.22684 75.2449C14.2488 37.538 48.7998 0.937973 86.1198 0.0519562C123.44 -0.834061 163.472 33.994 170.891 68.102Z" fill="#E5E7E8"/>
<path fill-rule="evenodd" clip-rule="evenodd" d="M164.651 167.497H8.77149C8.76292 149.943 15.7399 133.078 28.1672 120.64C40.5946 108.203 57.4541 101.212 75.0361 101.207H98.3645C134.972 101.209 164.648 130.883 164.654 167.491L164.651 167.497Z" fill="#11AFFF"/>
<path fill-rule="evenodd" clip-rule="evenodd" d="M71.4145 101.31C36.2743 103.244 8.77142 132.302 8.77151 167.496H134.058C134.058 132.304 106.556 103.246 71.4172 101.31L71.4145 101.31Z" fill="#36CEF4"/>
<path fill-rule="evenodd" clip-rule="evenodd" d="M86.7105 109.841L74.9385 122.228L86.7105 134.351L98.4805 122.228L86.7105 109.841Z" fill="#FCCA03"/>
<path fill-rule="evenodd" clip-rule="evenodd" d="M46.3301 107.74L70.0921 125.983L85.3731 114.112L71.3521 101.312C62.6691 101.783 54.1651 103.968 46.3301 107.74H46.3301Z" fill="#E0EFF4"/>
<path fill-rule="evenodd" clip-rule="evenodd" d="M127.092 107.74L103.33 125.983L88.0488 114.112L102.07 101.312C110.753 101.783 119.257 103.968 127.092 107.74H127.092Z" fill="#C2DBE5"/>
<path fill-rule="evenodd" clip-rule="evenodd" d="M112.711 118.776C107.62 114.073 101.822 110.199 95.5298 107.295L88.0508 114.122L103.332 125.995L112.711 118.776Z" fill="#E0EFF4"/>
<path fill-rule="evenodd" clip-rule="evenodd" d="M98.4829 122.228L88.0419 114.115L86.7109 111.534V134.351L98.4829 122.228Z" fill="#FCAD02"/>
<path fill-rule="evenodd" clip-rule="evenodd" d="M73.4229 20.8088H99.9999C112.312 20.8088 122.293 30.7897 122.293 43.1018V78.5338C122.293 98.1849 106.363 114.115 86.7114 114.115C67.0603 114.115 51.1299 98.1849 51.1299 78.5338V43.1018C51.1299 30.7897 61.1108 20.8088 73.4229 20.8088Z" fill="#FFC65C"/>
<path fill-rule="evenodd" clip-rule="evenodd" d="M51.1299 43.1018V78.5338C51.1413 95.1085 62.5872 109.474 78.7322 113.185C94.8714 109.464 106.307 95.0964 106.312 78.5338V43.1018C106.312 30.7917 96.334 20.8116 84.0239 20.8088H73.4239C67.5112 20.8086 61.8407 23.1572 57.6597 27.338C53.4787 31.5187 51.1299 37.1892 51.1299 43.1018V43.1018Z" fill="#FFD89E"/>
<path fill-rule="evenodd" clip-rule="evenodd" d="M43.066 142.992V167.492H37.126V142.992C37.1556 141.374 38.4755 140.078 40.0935 140.078C41.7114 140.078 43.0313 141.374 43.061 142.992H43.066Z" fill="#11AFFF"/>
<path fill-rule="evenodd" clip-rule="evenodd" d="M97.4251 167.496H75.9971L86.7151 134.351L97.4251 167.496Z" fill="#FCAD02"/>
<path fill-rule="evenodd" clip-rule="evenodd" d="M75.3611 58.9759H62.6001C60.9824 59.0056 59.6865 60.3254 59.6865 61.9434C59.6865 63.5613 60.9824 64.8812 62.6001 64.9109H67.9111C68.4458 67.2414 70.6141 68.823 72.9966 68.6202C75.379 68.4175 77.2489 66.4922 77.3821 64.1049C78.2768 63.2763 78.5716 61.9838 78.1246 60.8493C77.6776 59.7148 76.5805 58.9706 75.3611 58.9749V58.9759Z" fill="#292929"/>
<path fill-rule="evenodd" clip-rule="evenodd" d="M110.822 58.9768H98.0612C96.8424 58.9726 95.7456 59.7161 95.2984 60.8499C94.8511 61.9837 95.1448 63.2758 96.0382 64.1048C96.1714 66.4922 98.0413 68.4174 100.424 68.6202C102.806 68.8229 104.975 67.2413 105.509 64.9108H110.82C111.893 64.9305 112.894 64.3693 113.436 63.443C113.978 62.5168 113.978 61.3699 113.436 60.4436C112.894 59.5174 111.893 58.9561 110.82 58.9758L110.822 58.9768Z" fill="#292929"/>
<path fill-rule="evenodd" clip-rule="evenodd" d="M38.2275 55.4028H51.1275V82.1148H38.2275V55.4028Z" fill="#292929"/>
<path fill-rule="evenodd" clip-rule="evenodd" d="M97.4247 11.6169C35.9807 3.30588 51.1337 61.9429 51.1337 61.9429C61.2037 47.3729 69.6398 53.1979 89.3267 42.7519C93.1317 40.8589 96.2112 37.771 98.0937 33.9609C98.6224 35.4805 99.2518 36.9631 99.9778 38.3989C107.078 52.3269 122.297 56.3879 122.297 56.3879C127.406 13.6249 97.4297 11.6169 97.4297 11.6169H97.4247Z" fill="#CB6F2C"/>
<path fill-rule="evenodd" clip-rule="evenodd" d="M25.374 68.759C25.374 78.0374 32.8957 85.559 42.174 85.559V51.959C37.7175 51.9561 33.4426 53.7251 30.2914 56.8764C27.1402 60.0276 25.3711 64.3025 25.374 68.759H25.374Z" fill="#FF6100"/>
<path fill-rule="evenodd" clip-rule="evenodd" d="M135.192 82.1148H122.292V55.4028H135.192V82.1148Z" fill="#292929"/>
<path fill-rule="evenodd" clip-rule="evenodd" d="M148.049 68.76C148.049 59.4816 140.527 51.96 131.249 51.96V85.56C135.706 85.5629 139.98 83.7938 143.132 80.6426C146.283 77.4913 148.052 73.2165 148.049 68.76Z" fill="#EF3F00"/>
<path fill-rule="evenodd" clip-rule="evenodd" d="M86.7112 99.1208C85.1295 99.1167 83.8291 97.8729 83.7543 96.293C83.6797 94.7132 84.857 93.3523 86.4312 93.1989L123.06 89.6869V82.1158C123.09 80.4982 124.41 79.2024 126.028 79.2024C127.646 79.2024 128.965 80.4982 128.995 82.1158V92.3839C128.995 93.9125 127.834 95.1913 126.312 95.3378L86.9952 99.1078C86.8952 99.1158 86.8032 99.1208 86.7112 99.1208Z" fill="#292929"/>
<circle cx="86.7105" cy="96.1539" r="5.856" fill="#FF6100"/>
<path fill-rule="evenodd" clip-rule="evenodd" d="M86.1791 167.496L86.7151 134.351L75.9971 167.496H86.1791Z" fill="#FCCA03"/>
<path fill-rule="evenodd" clip-rule="evenodd" d="M97.4255 11.6168C78.3875 9.04077 66.7065 12.8958 59.6475 19.4378C95.3295 15.5238 98.0895 33.9608 98.0895 33.9608C98.6181 35.4803 99.2475 36.963 99.9735 38.3987C107.073 52.3268 122.292 56.3878 122.292 56.3878C127.406 13.6248 97.4255 11.6168 97.4255 11.6168Z" fill="#AF5819"/>
<path fill-rule="evenodd" clip-rule="evenodd" d="M149.456 120.692C148.744 119.892 147.657 119.538 146.61 119.765C145.564 119.992 144.721 120.765 144.404 121.788C144.088 122.81 144.346 123.924 145.081 124.703L145.473 125.134C146.177 125.945 147.263 126.312 148.315 126.095C149.366 125.878 150.218 125.11 150.543 124.087C150.868 123.064 150.615 121.945 149.882 121.161L149.456 120.692Z" fill="#3A3A3A"/>
<path fill-rule="evenodd" clip-rule="evenodd" d="M156.893 130.413C156.336 129.495 155.325 128.95 154.252 128.987C153.178 129.025 152.209 129.641 151.717 130.596C151.226 131.551 151.289 132.697 151.882 133.593C158.297 143.71 161.696 155.446 161.682 167.426V167.501C161.684 168.284 161.999 169.034 162.556 169.584C163.113 170.134 163.867 170.439 164.65 170.431C166.297 170.413 167.621 169.072 167.618 167.426C167.633 154.322 163.914 141.483 156.895 130.415L156.893 130.413Z" fill="#3A3A3A"/>
<path fill-rule="evenodd" clip-rule="evenodd" d="M133.319 140.024C131.68 140.024 130.351 141.353 130.351 142.992V167.492C130.331 168.565 130.893 169.565 131.819 170.108C132.745 170.65 133.892 170.65 134.818 170.108C135.745 169.565 136.306 168.565 136.286 167.492V142.99C136.285 141.352 134.957 140.024 133.319 140.024H133.319Z" fill="#3A3A3A"/>
<path fill-rule="evenodd" clip-rule="evenodd" d="M40.0984 140.024C38.4592 140.024 37.1304 141.353 37.1304 142.992V167.492C37.1107 168.565 37.672 169.565 38.5982 170.108C39.5244 170.65 40.6713 170.65 41.5976 170.108C42.5238 169.565 43.0851 168.565 43.0654 167.492V142.99C43.0643 141.352 41.7363 140.024 40.0983 140.024H40.0984Z" fill="#3A3A3A"/>
<path fill-rule="evenodd" clip-rule="evenodd" d="M78.3281 61.9438C78.3281 60.3047 76.9993 58.9758 75.3601 58.9758H62.6001C60.9824 59.0055 59.6865 60.3254 59.6865 61.9433C59.6865 63.5613 60.9824 64.8812 62.6001 64.9108H67.9111C68.4458 67.2413 70.6141 68.8229 72.9966 68.6202C75.379 68.4174 77.2489 66.4922 77.3821 64.1048C77.9844 63.5471 78.3272 62.7637 78.3281 61.9428V61.9438Z" fill="#3A3A3A"/>
<path fill-rule="evenodd" clip-rule="evenodd" d="M96.0374 64.1039C96.1706 66.4912 98.0405 68.4165 100.423 68.6192C102.805 68.822 104.974 67.2404 105.508 64.9099H110.819C112.437 64.8802 113.733 63.5604 113.733 61.9424C113.733 60.3244 112.437 59.0045 110.819 58.9749H98.0604C96.8407 58.9698 95.7428 59.7136 95.2953 60.8483C94.8478 61.9831 95.1425 63.2761 96.0374 64.1049V64.1039Z" fill="#3A3A3A"/>
<path fill-rule="evenodd" clip-rule="evenodd" d="M64.9874 12.1979C64.7364 12.3229 64.4874 12.4509 64.2444 12.5809C63.2897 13.0674 62.6714 14.0307 62.6266 15.1013C62.5819 16.1719 63.1177 17.1835 64.0284 17.748C64.9392 18.3125 66.0836 18.3423 67.0224 17.8259L67.6434 17.5069C69.1097 16.774 69.7043 14.9912 68.9714 13.5249C68.2386 12.0585 66.4557 11.464 64.9894 12.1969L64.9874 12.1979Z" fill="#3A3A3A"/>
<path fill-rule="evenodd" clip-rule="evenodd" d="M131.251 48.9949C129.612 48.9949 128.283 50.3237 128.283 51.9629L128.283 52.4359H125.638C126.638 38.3609 123.866 27.2629 117.362 19.4249C112.429 13.4688 105.408 9.62021 97.7337 8.66487C90.0598 7.46523 82.2392 7.5575 74.5957 8.93787C73.0081 9.28557 71.9954 10.8455 72.324 12.4372C72.6525 14.0289 74.2002 15.0603 75.7957 14.7509C82.811 13.5006 89.9861 13.433 97.0237 14.5509C97.0917 14.5509 97.1577 14.5659 97.2237 14.5709C103.317 15.3808 108.879 18.4655 112.793 23.2059C118.334 29.8849 120.656 39.6559 119.714 52.2849C112.436 49.3136 106.399 43.9332 102.614 37.0439C101.948 35.727 101.371 34.3674 100.886 32.9738C100.487 31.8425 99.4465 31.0624 98.2488 30.9967C97.0511 30.9311 95.9316 31.5929 95.4117 32.6739C93.7942 35.9084 91.167 38.5279 87.9277 40.1359C82.1042 43.1954 75.9086 45.4868 69.4958 46.9528C63.2837 48.5589 58.0957 49.8989 52.9307 55.0739C51.9527 47.1039 51.6847 33.0789 59.6547 23.7019C60.6841 22.4498 60.5194 20.6036 59.2847 19.5535C58.0501 18.5033 56.2014 18.637 55.1307 19.8539C46.7637 29.7069 45.9837 43.2259 46.6857 52.4299H45.1377V40.1849C45.1377 21.3189 63.7917 5.97186 86.7107 5.97186C109.63 5.97186 128.284 21.3169 128.284 40.1849C128.264 41.258 128.825 42.2583 129.751 42.8006C130.678 43.343 131.825 43.343 132.751 42.8006C133.677 42.2583 134.238 41.258 134.219 40.1849C134.219 18.0479 112.906 0.0368652 86.7107 0.0368652C60.5157 0.0368652 39.2027 18.0459 39.2027 40.1849V82.2699C34.268 81.1845 30.3179 77.4946 28.8992 72.6452C27.4805 67.7958 28.8191 62.5588 32.3907 58.9848C33.5505 57.8251 33.5505 55.9447 32.3907 54.7849C31.2309 53.6251 29.3505 53.6251 28.1907 54.7849C22.5335 60.4372 20.8398 68.9415 23.8999 76.3299C26.9599 83.7184 34.1707 88.5347 42.1677 88.5319C43.8069 88.5319 45.1357 87.203 45.1357 85.5639V85.0809H48.7227C49.716 90.8479 52.016 96.311 55.4467 101.052C26.0791 109.86 5.92453 136.836 5.80371 167.496C5.80553 168.279 6.12003 169.029 6.67733 169.579C7.23463 170.129 7.98859 170.434 8.77168 170.426C10.416 170.408 11.7398 169.07 11.7397 167.426C11.8688 138.414 31.6084 113.164 59.7311 106.038C64.7824 111.001 71.1043 114.475 78.0017 116.079L70.0927 122.238L58.3807 113.245C57.5412 112.578 56.4073 112.415 55.4144 112.82C54.4215 113.225 53.7239 114.133 53.5897 115.197C53.4555 116.261 53.9054 117.314 54.7667 117.953L68.2957 128.338C69.3664 129.16 70.8566 129.155 71.9227 128.328L74.6617 126.201L83.3427 135.141L73.1777 166.585C72.6737 168.144 73.5293 169.817 75.0887 170.321C76.6481 170.825 78.3207 169.969 78.8247 168.41L86.7137 144.001L94.6027 168.409C95.1067 169.968 96.7793 170.824 98.3387 170.32C99.8981 169.816 100.754 168.143 100.25 166.584L90.0837 135.138L98.7647 126.198L101.504 128.323C102.57 129.15 104.06 129.155 105.131 128.333L127.411 111.233C131.084 113.118 134.564 115.359 137.8 117.923C139.082 118.945 140.949 118.733 141.971 117.451C142.993 116.169 142.782 114.302 141.5 113.28C134.511 107.736 126.519 103.591 117.962 101.07C119.158 99.415 120.22 97.6678 121.14 95.8448L126.295 95.3449C127.817 95.1986 128.979 93.9199 128.979 92.3909L128.979 87.4529C129.537 88.13 130.367 88.5233 131.245 88.5259C142.161 88.5259 151.011 79.6763 151.011 68.7598C151.011 57.8434 142.161 48.9939 131.245 48.9939L131.251 48.9949ZM128.283 79.1449H125.244C125.244 78.9399 125.259 78.7359 125.259 78.5309V58.3709H128.283V79.1449ZM45.1387 79.1449V58.3709H47.3937C47.7037 60.2859 48.0097 61.6589 48.1617 62.3019V78.5339C48.1617 78.7409 48.1737 78.9429 48.1767 79.1479L45.1387 79.1449ZM86.7137 130.092L79.3777 122.537L86.4107 117.077H87.0207L94.0537 122.537L86.7137 130.092ZM103.333 122.234L95.4097 116.082C102.305 114.48 108.625 111.009 113.677 106.05C116.261 106.691 118.801 107.496 121.283 108.46L103.333 122.234ZM86.7137 111.148C68.7088 111.129 54.1171 96.5388 54.0967 78.5339V62.9019C59.2727 55.7509 63.7427 54.5769 70.9857 52.7019C77.8482 51.1136 84.4784 48.6508 90.7137 45.3739C93.2798 44.0433 95.5861 42.2627 97.5227 40.1169C103.602 51.6929 114.635 56.8019 119.323 58.5269V78.5368C119.317 82.5462 118.566 86.5214 117.108 90.2583L94.6667 92.4069C92.8454 88.5237 88.4942 86.5143 84.3571 87.6457C80.2199 88.7771 77.497 92.7213 77.9053 96.9908C78.3136 101.26 81.7348 104.617 86.0113 104.944C90.2879 105.271 94.1794 102.473 95.2317 98.3149L113.886 96.5259C107.854 105.649 97.6503 111.14 86.7137 111.148ZM134.222 82.2699V55.2499C140.564 56.646 145.081 62.2656 145.081 68.7594C145.081 75.2531 140.564 80.8727 134.222 82.2688L134.222 82.2699Z" fill="#3A3A3A"/>
</svg>
